HIERARCHY
ROOT SpineBase
{
  OFFSET 0.000000 0.000000 0.000000
  CHANNELS 6 Xposition Yposition Zposition Zrotation Xrotation Yrotation
  JOINT SpineMid
  {
    OFFSET 0.000000 29.740291 0.000000
    CHANNELS 3 Zrotation Xrotation Yrotation
    JOINT SpineShoulder
    {
      OFFSET 0.037687 22.023591 -0.814590
      CHANNELS 3 Zrotation Xrotation Yrotation
      JOINT Neck
      {
        OFFSET 0.000576 7.283314 -0.612201
        CHANNELS 3 Zrotation Xrotation Yrotation
        JOINT Head
        {
          OFFSET -2.893622 13.024668 1.112001
          CHANNELS 3 Zrotation Xrotation Yrotation
          End Site
          {
            OFFSET 0 0 0
          }
        }
      }
      JOINT ShoulderLeft
      {
        OFFSET -14.068642 -3.598483 8.135292
        CHANNELS 3 Zrotation Xrotation Yrotation
        JOINT ElbowLeft
        {
          OFFSET 0.266247 -29.007968 7.045674
          CHANNELS 3 Zrotation Xrotation Yrotation
          JOINT WristLeft
          {
            OFFSET -1.373463 -21.704361 -6.949522
            CHANNELS 3 Zrotation Xrotation Yrotation
            JOINT HandLeft
            {
              OFFSET 0.056162 -4.574757 2.084467
              CHANNELS 3 Zrotation Xrotation Yrotation
              JOINT HandTipLeft
              {
                OFFSET 1.047402 -7.356687 -5.235360
                CHANNELS 3 Zrotation Xrotation Yrotation
                End Site
                {
                  OFFSET 0 0 0
                }
              }
              JOINT ThumbLeft
              {
                OFFSET 0.227211 -2.185311 -0.511519
                CHANNELS 3 Zrotation Xrotation Yrotation
                End Site
                {
                  OFFSET 0 0 0
                }
              }
            }
          }
        }
      }
      JOINT ShoulderRight
      {
        OFFSET 9.532491 -4.638314 -11.330952
        CHANNELS 3 Zrotation Xrotation Yrotation
        JOINT ElbowRight
        {
          OFFSET 5.939164 -21.619864 -2.877800
          CHANNELS 3 Zrotation Xrotation Yrotation
          JOINT WristRight
          {
            OFFSET 0.760496 -21.795389 -5.667179
            CHANNELS 3 Zrotation Xrotation Yrotation
            JOINT HandRight
            {
              OFFSET -0.957772 -4.875074 -0.616524
              CHANNELS 3 Zrotation Xrotation Yrotation
              JOINT HandTipRight
              {
                OFFSET 0.325274 -6.966307 -0.930433
                CHANNELS 3 Zrotation Xrotation Yrotation
                End Site
                {
                  OFFSET 0 0 0
                }
              }
              JOINT ThumbRight
              {
                OFFSET -2.032805 -1.808680 -1.685086
                CHANNELS 3 Zrotation Xrotation Yrotation
                End Site
                {
                  OFFSET 0 0 0
                }
              }
            }
          }
        }
      }
    }
  }
  JOINT HipLeft
  {
    OFFSET -4.721477 -0.093512 0.178427
    CHANNELS 3 Zrotation Xrotation Yrotation
    JOINT KneeLeft
    {
      OFFSET 3.962674 -26.048992 9.494673
      CHANNELS 3 Zrotation Xrotation Yrotation
      JOINT AnkleLeft
      {
        OFFSET 8.017564 -31.015549 8.754647
        CHANNELS 3 Zrotation Xrotation Yrotation
        JOINT FootLeft
        {
          OFFSET -2.642373 -6.934784 -3.762130
          CHANNELS 3 Zrotation Xrotation Yrotation
          End Site
          {
            OFFSET 0 0 0
          }
        }
      }
    }
  }
  JOINT HipRight
  {
    OFFSET 4.614234 1.268823 -7.083757
    CHANNELS 3 Zrotation Xrotation Yrotation
    JOINT KneeRight
    {
      OFFSET 10.539231 -23.436219 -10.313950
      CHANNELS 3 Zrotation Xrotation Yrotation
      JOINT AnkleRight
      {
        OFFSET 6.008977 -36.175297 22.133123
        CHANNELS 3 Zrotation Xrotation Yrotation
        JOINT FootRight
        {
          OFFSET -6.008736 -4.056658 -10.471180
          CHANNELS 3 Zrotation Xrotation Yrotation
          End Site
          {
            OFFSET 0 0 0
          }
        }
      }
    }
  }
}
MOTION
Frames: 10
Frame Time: 0.033333
11.366960 67.846573 332.644855 0.392979 -2.738281 43.877856 0.693444 -0.325487 -43.839073 0.083411 0.813056 0.045055 28.671442 31.800615 -4.557041 0.000000 0.000000 0.000000 147.445762 73.574152 -130.110475 142.533520 -67.662873 148.206042 -8.560620 8.124373 17.896907 -10.898073 -49.958392 -35.384546 0.000000 0.000000 0.000000 0.000000 0.000000 0.000000 -8.954764 -0.923672 0.291033 -105.528823 35.108720 83.028445 -49.687097 1.660491 -77.644203 -2.551972 21.389481 43.250744 0.000000 0.000000 0.000000 0.000000 0.000000 0.000000 -6.511243 10.897091 -47.250256 16.253868 -0.679913 5.200731 -12.976923 18.922355 -1.207389 0.000000 0.000000 0.000000 -28.056556 -11.184787 -56.717976 6.969482 45.455355 12.236547 0.917127 -17.805658 -8.697108 0.000000 0.000000 0.000000
11.424900 67.956825 332.646879 0.370261 -2.262302 44.174845 0.678240 -0.531523 -44.132525 0.096094 0.912118 0.049749 23.914753 28.603714 -2.688362 0.000000 0.000000 0.000000 170.483744 75.976344 -166.108245 120.590364 -52.173307 115.648697 -13.250084 -8.060445 23.511370 -3.233988 -37.447131 -39.480903 0.000000 0.000000 0.000000 0.000000 0.000000 0.000000 -9.615521 2.938747 1.804849 -97.626712 37.819147 73.493838 -57.407622 -13.594944 -87.867625 -21.436283 21.142586 46.246324 0.000000 0.000000 0.000000 0.000000 0.000000 0.000000 -4.895170 9.879471 -47.038930 14.944553 -2.249765 4.595945 -8.686884 14.229919 -2.665289 0.000000 0.000000 0.000000 -28.641833 -11.179061 -56.999840 7.424386 45.392278 11.924147 -0.671820 -11.837311 -11.978071 0.000000 0.000000 0.000000
11.344835 68.004044 332.744972 0.284630 -1.556279 43.976676 0.735461 -0.637857 -43.933006 0.177280 0.891948 0.057954 15.688266 21.817450 -0.214784 0.000000 0.000000 0.000000 -151.223702 79.270892 141.193911 107.647977 -31.821348 88.084117 -14.849891 -20.118059 32.489204 -4.657206 -31.280695 -45.078559 0.000000 0.000000 0.000000 0.000000 0.000000 0.000000 -10.955519 8.392506 4.101329 -91.080969 38.646705 63.358881 -45.170303 -9.688939 -72.561288 -15.897616 22.096316 47.991266 0.000000 0.000000 0.000000 0.000000 0.000000 0.000000 -2.460484 7.853772 -45.913872 11.426156 -4.053881 3.232153 -0.606154 8.651849 -5.292983 0.000000 0.000000 0.000000 -29.360926 -11.721590 -57.107099 7.767290 45.775188 11.855009 -0.072000 -10.825436 -15.135863 0.000000 0.000000 0.000000
11.115545 68.117978 332.973798 0.121910 -0.694959 43.832887 0.873523 -0.603220 -43.789924 0.295505 0.862131 0.066575 5.542359 11.531655 1.206371 0.000000 0.000000 0.000000 -104.316704 77.284366 82.857892 99.669583 -9.794753 64.637693 -9.996996 -26.794379 47.332320 -16.428378 -30.315523 -50.523046 0.000000 0.000000 0.000000 0.000000 0.000000 0.000000 -12.883442 13.653518 6.664603 -84.453457 39.032145 53.382222 -36.667102 -16.528807 -66.800657 -20.466584 20.490084 44.003393 0.000000 0.000000 0.000000 0.000000 0.000000 0.000000 -1.844631 7.136279 -45.472656 10.360608 -5.327997 2.733721 1.532894 9.892774 -6.671911 0.000000 0.000000 0.000000 -29.248049 -12.475517 -57.262171 7.217903 45.355961 12.049211 1.716500 -12.403913 -18.016780 0.000000 0.000000 0.000000
10.793364 68.275748 333.304170 -0.089946 0.221493 43.739554 0.952510 -0.501875 -43.698892 0.400679 0.586314 0.073946 -4.229005 0.635309 0.495687 0.000000 0.000000 0.000000 -78.030849 73.332398 52.183466 93.512150 5.435912 47.725946 -5.814155 -8.232410 58.727530 -52.684472 -42.929267 -62.833266 0.000000 0.000000 0.000000 0.000000 0.000000 0.000000 -14.010858 17.026383 8.439492 -79.883978 38.461832 45.933793 -33.636906 -22.340406 -65.928895 -24.840903 21.251756 44.370141 0.000000 0.000000 0.000000 0.000000 0.000000 0.000000 0.101170 5.655954 -44.529877 7.153833 -7.050356 1.394874 -2.576433 18.435214 -5.992445 0.000000 0.000000 0.000000 -28.478243 -13.101727 -57.149274 6.747719 44.209038 12.036048 1.213646 -12.087941 -17.388553 0.000000 0.000000 0.000000
10.392543 68.457487 333.717154 -0.534961 0.769197 43.584035 0.752482 -0.618647 -43.554811 0.635288 0.444332 0.075864 -7.651586 -4.187229 -0.509271 0.000000 0.000000 0.000000 -58.135561 71.023410 34.812443 84.618480 12.306944 34.944964 -13.840756 13.726911 57.436617 -104.107471 -56.563746 -98.094436 0.000000 0.000000 0.000000 0.000000 0.000000 0.000000 -14.045044 19.342615 9.490210 -78.197544 37.754777 41.630687 -30.423369 -27.621796 -65.102382 -26.697348 23.615202 45.378819 0.000000 0.000000 0.000000 0.000000 0.000000 0.000000 2.072071 4.145678 -43.541441 4.229034 -8.180344 0.140271 -8.086233 25.348277 -3.506430 0.000000 0.000000 0.000000 -26.272222 -13.769085 -56.769861 5.283517 42.175691 12.240107 0.115612 -12.026909 -14.105565 0.000000 0.000000 0.000000
10.074415 68.718088 333.996199 -0.946146 1.176989 44.389668 0.417503 -0.582108 -44.382305 0.735738 0.466170 0.057020 -6.860535 -7.245979 -1.288175 0.000000 0.000000 0.000000 -41.537219 69.630818 23.500404 76.034504 12.255231 27.235461 -10.136129 12.638147 63.403621 -110.209542 -54.223053 -100.247639 0.000000 0.000000 0.000000 0.000000 0.000000 0.000000 -11.655701 18.998740 8.882210 -81.612617 37.090384 42.451435 -26.198185 -31.594027 -63.527785 -25.685329 25.215531 43.689685 0.000000 0.000000 0.000000 0.000000 0.000000 0.000000 4.150700 2.785373 -43.461032 0.860148 -9.569564 -1.426815 -14.836859 29.479613 1.543880 0.000000 0.000000 0.000000 -25.445005 -14.505878 -58.073926 3.412349 41.842974 13.141623 -1.720052 -12.803507 -8.347596 0.000000 0.000000 0.000000
9.734652 69.111627 334.229354 -1.334192 1.174430 45.725460 0.411610 -0.589627 -45.728675 0.824893 0.454081 0.048505 -2.599785 -6.973855 -1.217906 0.000000 0.000000 0.000000 -37.830213 72.557413 23.649796 65.564827 11.907666 23.929342 -11.869935 14.325060 61.736261 -124.546121 -57.323367 -117.032939 0.000000 0.000000 0.000000 0.000000 0.000000 0.000000 -9.720959 17.800043 7.972591 -84.402623 36.556955 44.226552 -20.444630 -30.522560 -57.908816 -20.360000 22.288291 35.711025 0.000000 0.000000 0.000000 0.000000 0.000000 0.000000 5.591369 2.128173 -44.301824 -1.073194 -10.400507 -2.370109 -15.745490 25.797242 3.978816 0.000000 0.000000 0.000000 -23.458516 -14.690127 -59.362324 1.076098 40.092602 13.743147 -3.468454 -13.430415 -1.571431 0.000000 0.000000 0.000000
9.768819 69.475773 334.056535 -1.030329 0.960814 46.350388 0.162159 -0.423554 -46.363197 0.820230 0.321672 0.046479 -2.220202 -5.017948 -0.830398 0.000000 0.000000 0.000000 -42.485390 72.970921 27.063469 67.123554 12.049383 25.475674 -14.972363 18.486458 57.732108 -134.040844 -57.359709 -125.633908 0.000000 0.000000 0.000000 0.000000 0.000000 0.000000 -9.727173 18.769729 8.239911 -84.699086 37.232417 44.510960 -23.677928 -30.733298 -61.357718 -15.708975 24.449492 35.656558 0.000000 0.000000 0.000000 0.000000 0.000000 0.000000 5.059024 2.440915 -45.149219 -0.736865 -9.978300 -2.163806 -11.427601 27.621487 0.520340 0.000000 0.000000 0.000000 -24.908523 -14.273006 -60.329257 1.284942 41.581896 14.100264 -3.482907 -13.977037 -1.354017 0.000000 0.000000 0.000000
10.213087 69.473303 333.604635 -0.940900 1.857508 45.562773 -0.246886 -0.434468 -45.582261 0.854562 0.036565 0.046544 0.217278 -6.387601 -1.118854 0.000000 0.000000 0.000000 -43.427647 73.719852 28.371297 70.883782 9.396466 28.741272 -8.705188 4.420715 62.970366 -93.908230 -54.481446 -90.538578 0.000000 0.000000 0.000000 0.000000 0.000000 0.000000 -9.705748 18.760738 8.352739 -83.165854 37.758865 43.660160 -26.919120 -27.277229 -62.361223 -10.394648 26.417972 36.413541 0.000000 0.000000 0.000000 0.000000 0.000000 0.000000 2.042003 2.759997 -45.314162 2.897532 -8.705420 -0.503504 -6.078351 15.273527 -0.745640 0.000000 0.000000 0.000000 -27.750769 -14.967240 -60.355165 2.438634 43.649889 14.029438 -2.507178 -13.942646 -3.889830 0.000000 0.000000 0.000000
